<svg xmlns="http://www.w3.org/2000/svg" viewBox="0 0 24 24" fill="#FF9900">
  <path d="M15.76 10.284c-1.315-.537-2.485-.995-2.485-1.97 0-.98.895-1.668 2.057-1.668 1.33 0 2.125.72 2.17 1.734h1.795c-.096-1.593-1.447-2.907-3.965-2.907-2.345 0-3.946 1.4-3.946 3.306 0 2.098 1.498 2.857 3.466 3.493 1.734.558 2.32.924 2.32 1.615 0 .975-.855 1.685-2.027 1.685-1.528 0-2.428-.812-2.514-1.86H7.826c.098 1.763 1.637 3.008 4.017 3.008 2.545 0 4.148-1.428 4.148-3.595 0-2.11-1.537-2.835-3.636-3.536l-.599-.239zm-9.987 4.988v-9.26H3.77v1.188h.048c.346-.67 1.004-1.268 1.958-1.268.98 0 1.625.512 1.625 1.62v7.72h-1.964zm-.448-9.015c-1.17 0-1.91-.736-1.91-1.71 0-1.03.76-1.717 1.925-1.717 1.17 0 1.91.688 1.91 1.71 0 .98-.74 1.717-1.925 1.717z"/>
</svg>
