<svg xmlns="http://www.w3.org/2000/svg" viewBox="0 0 24 24" fill="#10A37F">
  <path d="M22.281 9.821a5.985 5.985 0 0 0-.516-4.91 6.046 6.046 0 0 0-6.51-3.9A6.065 6.065 0 0 0 4.981 4.18a5.985 5.985 0 0 0-3.997 2.9 6.046 6.046 0 0 0 .743 7.097 5.98 5.98 0 0 0 .511 4.911 6.051 6.051 0 0 0 6.515 3.9 5.985 5.985 0 0 0 10.273 2.901 6.056 6.056 0 0 0-.744-7.097 5.99 5.99 0 0 0 2.987-4.971zm-9.781 5.3c-2.872 0-5.2-2.327-5.2-5.2 0-2.872 2.328-5.2 5.2-5.2 2.871 0 5.2 2.328 5.2 5.2 0 2.873-2.329 5.2-5.2 5.2z"/>
</svg>
